<svg id="Layer_1" data-name="Layer 1" xmlns="http://www.w3.org/2000/svg" viewBox="0 0 868.41 336.88" height="50"><defs><style>.cls-1{fill:#FFFA69;}</style></defs><title>Logo-yellow</title><path class="cls-1" d="M623.77,804.8c-13.58,0-22.46,10.37-22.46,23.82s8.89,23.82,22.46,23.82,22.34-10.49,22.34-23.82S637.34,804.8,623.77,804.8Z" transform="translate(-401.1 -581.56)"/><path class="cls-1" d="M963,738.79H401.1V918.44h685.78ZM550.59,869.72H529.36V815.29l-20.73,54.43h-9.38l-20.86-54.43v54.43H457.16V787.4h29.5l17.28,45.42L521.1,787.4h29.5Zm73.18,1.48c-25.18,0-44.06-17.53-44.06-42.58S598.59,786,623.77,786s43.94,17.53,43.94,42.58S648.94,871.2,623.77,871.2Zm149.7-1.48H753l-34.8-47.64v47.64H696.94V787.4h21.85l33.32,45.29V787.4h21.35Zm93.66-63.81H828v12.84h38.26v18.51H828V851.2h39.12v18.51H806.77V787.4h60.35Zm74.54,63.81H920.43v-33.2L889.21,787.4h23.94L931,817.76,948.7,787.4h24.07l-31.1,49.12Z" transform="translate(-401.1 -581.56)"/><polyline class="cls-1" points="728.26 163.13 868.41 101.33 545.54 63.36 730.24 336.58"/><path class="cls-1" d="M401.12,647.79c0-39.55,29.95-66.23,69.31-66.23,30.91,0,47.61,17.47,55.87,34.17l-28.41,13.63c-4.22-10.18-15.17-18.62-27.45-18.62-20.93,0-35.71,15.93-35.71,37.05,0,20.93,14.78,37.05,35.71,37.05,12.29,0,23.23-8.45,27.45-18.62l28.41,13.44C518,696,501.34,714,470.43,714,431.07,714,401.12,687.15,401.12,647.79Z" transform="translate(-401.1 -581.56)"/><path class="cls-1" d="M538.37,711.73V583.67h33v99.26h51.45v28.8Z" transform="translate(-401.1 -581.56)"/><path class="cls-1" d="M639.72,711.73V583.67h33V711.73Z" transform="translate(-401.1 -581.56)"/><path class="cls-1" d="M689.25,647.79c0-39.55,29.95-66.23,69.31-66.23,30.91,0,47.61,17.47,55.87,34.17L786,629.36c-4.22-10.18-15.17-18.62-27.45-18.62-20.93,0-35.71,15.93-35.71,37.05,0,20.93,14.78,37.05,35.71,37.05,12.29,0,23.23-8.45,27.45-18.62l28.41,13.44C806.17,696,789.47,714,758.56,714,719.2,714,689.25,687.15,689.25,647.79Z" transform="translate(-401.1 -581.56)"/><path class="cls-1" d="M903.88,711.73l-33.6-48.19-8.64,10.75v37.44h-33V583.67h33v52.6L901,583.67h40.7L892,643.57l52.41,68.16Z" transform="translate(-401.1 -581.56)"/></svg>
